<?xml version="1.0" encoding="UTF-8" standalone="no"?>
<!DOCTYPE svg PUBLIC "-//W3C//DTD SVG 1.1//EN" "http://www.w3.org/Graphics/SVG/1.1/DTD/svg11.dtd">
<svg width="100%" height="100%" viewBox="0 0 1024 1024" version="1.1" xmlns="http://www.w3.org/2000/svg" xmlns:xlink="http://www.w3.org/1999/xlink" xml:space="preserve" xmlns:serif="http://www.serif.com/" style="fill-rule:evenodd;clip-rule:evenodd;stroke-linejoin:round;stroke-miterlimit:2;">
    <g id="l4G5NoISsaPHYQwSlIaN6dO">
    </g>
    <g transform="matrix(3.67493,0,0,3.67493,-1371.62,-1355.65)">
        <g id="l1jzOK1Aa1d9Dp6mSxwAgFE">
            <g>
                <path id="pbQUh0q2Z" d="M468.9,609.6C456.8,604.5 448.7,598.9 437,587.1C424.3,574.3 419.6,567.3 413.5,552.1C407.5,536.9 405.7,526.2 406.4,509C407.6,475.9 417.4,454.1 440.7,432C454.3,419.1 470.1,410.7 488.5,406.4C501.1,403.4 524.3,403.9 537.5,407.4C573.6,416.9 602.6,445.2 614.3,482.5C625.4,517.8 615.8,558.7 590.4,585.1C586.9,588.7 581.9,593.2 579.2,595L574.5,598.4L580.6,591.9C592.5,578.9 600.9,563.4 605.2,546.3C608.3,533.9 608.3,511.1 605.1,499.5C601.7,486.8 588,460 585,460C583.6,460 583.8,466.4 585.2,469.5C586.2,471.6 586,472.5 583.8,475.5C578.3,483.3 543.4,522 541.9,522C541.4,522 541,521.4 541,520.8C541,516.6 543.8,511.5 550,504.2C564.2,487.3 570.8,476.2 571.7,467.5C573.1,454.4 567.2,438.2 557.3,427.8C547.8,417.9 538,413.5 522.5,412.1C496,409.8 472.2,418 450.4,436.8C437.9,447.6 427.3,463 422.5,477.5C413.9,502.9 415.8,529 427.6,548C428.8,550 431.2,554.4 432.9,557.8C434.6,561.2 436.5,564 437,564C437.6,564 438,561.2 438,557.7C438,551.9 438.3,551.1 441.1,548.4C442.8,546.8 451.2,537.5 459.6,527.8C474.5,510.7 479.8,505.4 480.8,506.5C482.1,507.8 477,517 469.2,527.3C453.1,548.6 450.3,555.3 452,568.5C453.9,583.7 459.9,596 470.3,606.2C473.6,609.4 475.9,612 475.4,612C474.9,611.9 472,610.9 468.9,609.6Z" style="fill-rule:nonzero;"/>
                <path id="pUyfLmJI4" d="M484.8,517C485,513.4 485.5,510.2 485.9,509.8C486.2,509.4 497.1,508.9 510.1,508.6C523,508.3 534.4,507.8 535.4,507.4C537.1,506.7 537.2,507.2 536.5,514.6C536.1,518.9 535.7,522.6 535.6,522.7C535.6,522.8 524,523 509.9,523.2L484.3,523.5L484.8,517Z" style="fill-rule:nonzero;"/>
            </g>
        </g>
    </g>
</svg>
