<?xml version="1.0" encoding="UTF-8" standalone="no"?>
<!DOCTYPE svg PUBLIC "-//W3C//DTD SVG 1.1//EN" "http://www.w3.org/Graphics/SVG/1.1/DTD/svg11.dtd">
<svg width="100%" height="100%" viewBox="0 0 4678 4134" version="1.1" xmlns="http://www.w3.org/2000/svg" xmlns:xlink="http://www.w3.org/1999/xlink" xml:space="preserve" xmlns:serif="http://www.serif.com/" style="fill-rule:evenodd;clip-rule:evenodd;stroke-linejoin:round;stroke-miterlimit:2;">
    <g transform="matrix(5.55556,0,0,5.55556,0,0)">
        <g>
            <g transform="matrix(1.79226,0,0,1.50795,-291.132,-19.5588)">
                <path d="M439.366,420.201C434.711,422.878 431.874,424.214 431.874,424.214C434.423,423.353 436.937,421.992 439.366,420.201Z" style="fill-rule:nonzero;"/>
            </g>
            <g transform="matrix(1.79226,0,0,1.50795,-291.132,-19.5588)">
                <path d="M466.671,253.946C466.671,253.946 470.049,111.865 351.235,93.251L351.221,93.252C351.221,93.252 370.694,128.569 353.823,164.702C336.94,200.836 322.139,229.309 325.524,259.689C325.524,259.689 316.955,210.415 273.589,197.54C273.589,197.54 289.687,229.566 280.863,274.745C272.04,319.913 292.032,404.235 374.093,426.139C374.093,426.139 301.38,385.349 353.579,319.092C353.579,319.092 354.874,351.678 381.754,361.387C381.754,361.387 339.43,285.418 401.749,214.787C401.749,214.787 387.468,263.794 435.25,305.684C478.608,343.695 463.161,402.658 439.364,420.202C468.597,403.392 569.702,333.579 492.641,207.951C492.643,207.95 489.522,241.074 466.671,253.946Z" style="fill-rule:nonzero;"/>
            </g>
        </g>
    </g>
</svg>
