<svg width="3000" height="3000" viewBox="0 0 3000 3000" fill="none" xmlns="http://www.w3.org/2000/svg">
<path d="M2190.52 1451.22C2190.52 1451.22 2224.15 260.939 1041.12 105L1040.98 105.008C1040.98 105.008 1234.88 400.877 1066.89 703.581C898.787 1006.29 751.413 1244.83 785.117 1499.34C785.117 1499.34 699.796 1086.54 268 978.682C268 978.682 428.288 1246.98 340.427 1625.47C252.577 2003.86 451.637 2710.27 1268.72 2893.77C1268.72 2893.77 544.715 2552.05 1064.46 1996.98C1064.46 1996.98 1077.36 2269.97 1345 2351.31C1345 2351.31 923.579 1714.88 1544.09 1123.17C1544.09 1123.17 1401.89 1533.72 1877.66 1884.66C2309.38 2203.1 2155.57 2697.06 1918.62 2844.03C2209.7 2703.21 3216.4 2118.35 2449.1 1065.9C2449.12 1065.89 2418.05 1343.39 2190.52 1451.22Z" fill="url(#paint0_linear_2168_10744)"/>
<defs>
<linearGradient id="paint0_linear_2168_10744" x1="1499.85" y1="105" x2="1499.85" y2="2893.77" gradientUnits="userSpaceOnUse">
<stop stop-color="#FAFF00"/>
<stop offset="1" stop-color="#FF5C00"/>
</linearGradient>
</defs>
</svg>
