<?xml version="1.0" encoding="UTF-8" standalone="no"?>
<!DOCTYPE svg PUBLIC "-//W3C//DTD SVG 1.1//EN" "http://www.w3.org/Graphics/SVG/1.1/DTD/svg11.dtd">
<svg width="100%" height="100%" viewBox="0 0 2778 2778" version="1.1" xmlns="http://www.w3.org/2000/svg" xmlns:xlink="http://www.w3.org/1999/xlink" xml:space="preserve" xmlns:serif="http://www.serif.com/" style="fill-rule:evenodd;clip-rule:evenodd;stroke-linejoin:round;stroke-miterlimit:2;">
    <g transform="matrix(5.55556,0,0,5.55556,0,0)">
        <path d="M250,0C387.979,0 500,112.021 500,250C500,387.979 387.979,500 250,500C112.021,500 0,387.979 0,250C0,112.021 112.021,0 250,0ZM177.1,316.4C195.1,316.4 209.5,312.3 220.2,303.9C231,295.4 238.5,282.5 242.9,265.4C245.6,254.9 247.8,244 249.7,232.9C250.3,228.9 250.6,225.6 250.6,223C250.6,214.3 248.4,206.8 244,200.5C239.6,194.1 233.6,189.3 226,186.2C218.4,182.9 209.7,181.3 200.1,181.3C164.7,181.3 142.7,198.5 134.2,232.9C131.2,245.6 128.9,256.4 127.3,265.4C126.7,269.4 126.4,272.7 126.4,275.5C126.4,288.6 131.1,298.8 140.5,305.9C150,312.9 162.2,316.4 177.1,316.4ZM179.8,289.4C167.8,289.4 161.7,283.7 161.8,272.1C161.8,269.3 162.1,266.7 162.6,264.2C164.9,252 167.1,241.8 169.4,233.4C171.5,224.8 175,218.5 179.9,214.4C184.9,210.3 190.9,208.2 197.9,208.2C209.8,208.2 215.7,213.9 215.7,225.3C215.7,228.1 215.4,230.8 214.9,233.4C213.4,242.2 211.2,252.4 208.3,264.2C206.2,272.8 202.6,279.1 197.6,283.2C192.7,287.3 186.8,289.4 179.8,289.4ZM259.3,314.6L284.8,314.6C286.1,314.6 287.3,314.2 288.4,313.3C289.6,312.4 290.2,311.3 290.5,309.9L299.1,268.8L324.4,268.8C340.8,268.8 353.7,265.4 363.1,258.5C372.7,251.6 379,241 382.1,226.6C382.8,223.2 383.2,219.9 383.2,216.8C383.2,205.9 378.9,197.6 370.4,191.8C362,186.1 350.9,183.2 337,183.2L287.1,183.2C285.8,183.2 284.6,183.6 283.5,184.5C282.3,185.4 281.6,186.5 281.4,187.9L255.5,309.9C255.3,311.2 255.5,312.3 256.1,313.3C256.9,314.2 257.9,314.6 259.3,314.6ZM325.7,242.9L304.2,242.9L311.3,209.3L333.8,209.3C338.9,209.3 342.6,210.3 344.7,212.3C346.8,214.2 347.9,217 347.9,220.6C347.9,222.2 347.7,224.1 347.3,226.2C346,231.6 343.4,235.7 339.4,238.6C335.5,241.5 331,242.9 325.7,242.9Z" style="fill:rgb(255,4,32);"/>
    </g>
</svg>
